<svg width="55" height="55" viewBox="0 0 55 55" fill="none" xmlns="http://www.w3.org/2000/svg">
<path fill-rule="evenodd" clip-rule="evenodd" d="M44.1325 12.98H38.7748V9.56676H43.1489C44.2683 9.56676 45.171 8.44735 45.171 7.07235V2.49765C45.171 1.11618 44.2683 0.00323486 43.1489 0.00323486H31.2075C30.088 0.00323486 29.1886 1.11941 29.1886 2.49765V7.07235C29.1886 8.45059 30.088 9.56676 31.2075 9.56676H35.6657V12.98H14.083C12.886 12.98 11.9154 13.9506 11.9154 15.1412L6.51245 43.065V51.7647H51.8001V43.065L46.3033 15.1412C46.3016 14.5668 46.072 14.0167 45.665 13.6115C45.258 13.2063 44.7068 12.9791 44.1325 12.98ZM19.4633 38.8753H16.1277V35.4879H19.4633V38.8753ZM16.1245 32.4047V29.0174H19.4601V32.4047H16.1245ZM25.9339 38.9238H22.5983V35.4879H25.9339V38.9238ZM25.9339 32.3529H22.5466V29.0659H25.9339V32.3529ZM32.4045 38.9174H29.0172V35.4847H32.4045V38.9174ZM29.0172 32.3529V29.0174H32.4045V32.3529H29.0172ZM32.4045 25.8824H16.1277V19.4118H32.4045V25.8824ZM42.0586 25.8824H35.5298V22.5824H42.0586V25.8824Z" fill="#E5B299"/>
</svg>
