<svg width="55" height="55" viewBox="0 0 55 55" fill="none" xmlns="http://www.w3.org/2000/svg">
<path fill-rule="evenodd" clip-rule="evenodd" d="M42.0588 15C42.0588 23.2883 35.5446 30 27.5 30C19.4554 30 12.9412 23.2883 12.9412 15C12.9412 6.71167 19.4554 0 27.5 0C35.5446 0 42.0588 6.71167 42.0588 15ZM38.0147 33.3333C37.8428 33.2929 37.6626 33.3139 37.5039 33.393C37.3451 33.472 37.2172 33.6044 37.1412 33.7683L30.7353 52.6183V46.6667L29.8051 39.965C30.1021 39.9005 30.3754 39.7513 30.594 39.5344C30.8125 39.3175 30.9674 39.0416 31.041 38.7383L31.8499 35.405C31.9096 35.1594 31.9142 34.903 31.8634 34.6553C31.8125 34.4075 31.7076 34.175 31.5565 33.9753C31.4054 33.7756 31.2121 33.614 30.9913 33.5028C30.7706 33.3915 30.5281 33.3336 30.2824 33.3333H24.7209C24.4752 33.3334 24.2327 33.3911 24.0119 33.5022C23.791 33.6132 23.5977 33.7746 23.4464 33.9741C23.2952 34.1737 23.19 34.4061 23.139 34.6537C23.0879 34.9013 23.0923 35.1577 23.1518 35.4033L23.9606 38.7367C24.0339 39.0403 24.1887 39.3165 24.4073 39.5337C24.6258 39.751 24.8993 39.9004 25.1965 39.965L24.2647 46.6667V51.16L17.8588 33.7683C17.7828 33.6044 17.6549 33.472 17.4961 33.393C17.3374 33.3139 17.1572 33.2929 16.9853 33.3333C16.4046 33.4783 15.7801 33.63 15.1282 33.7867C11.4691 34.67 6.94618 35.76 4.54235 37.3867C1.69044 39.315 0 41.5883 0 44.1667V55H55V44.1667C55 41.5883 53.3096 39.315 50.4576 37.3867C48.0538 35.76 43.5309 34.67 39.8718 33.7867C39.2199 33.63 38.5938 33.4783 38.0147 33.3333Z" fill="#E5B299"/>
</svg>
