<svg width="24" height="24" viewBox="0 0 24 24" fill="none" xmlns="http://www.w3.org/2000/svg">
<path d="M23.8687 18.9474C23.8687 20.2874 23.3658 21.5726 22.4705 22.5201C21.5753 23.4677 20.3611 24 19.095 24H15.5147C14.2486 24 13.0344 23.4677 12.1391 22.5201C11.2439 21.5726 10.7409 20.2874 10.7409 18.9474V16.4211H18.8444L22.1382 10.3958L24 11.5326L21.3267 16.4211H23.8687V18.9474ZM8.35405 24H0C0 20.2105 -1.06701e-07 16.4211 0.393834 12.4168C0.716062 9.22105 1.28891 5.88632 1.9095 2.52632H1.19344V0H7.16062V2.52632H6.44455C7.06514 5.88632 7.63799 9.22105 7.96022 12.4168C8.35405 16.4211 8.35405 20.2105 8.35405 24Z" fill="#7D5A50"/>
</svg>
