<svg width="24" height="24" viewBox="0 0 24 24" fill="none" xmlns="http://www.w3.org/2000/svg">
<path d="M21.3333 2.4H15.76C15.2 1.008 13.7333 0 12 0C10.2667 0 8.8 1.008 8.24 2.4H2.66667C1.2 2.4 0 3.48 0 4.8V21.6C0 22.92 1.2 24 2.66667 24H21.3333C22.8 24 24 22.92 24 21.6V4.8C24 3.48 22.8 2.4 21.3333 2.4ZM5.33333 8.4H8V13.2H6.66667V9.6H5.33333V8.4ZM9.33333 19.2V20.4H5.33333V19.296L8 16.8H5.33333V15.6H8.33333C8.88 15.6 9.33333 16.008 9.33333 16.5C9.33333 16.74 9.22667 16.968 9.05333 17.124L6.82667 19.2H9.33333ZM10.6667 3.6C10.6667 2.94 11.2667 2.4 12 2.4C12.7333 2.4 13.3333 2.94 13.3333 3.6C13.3333 4.26 12.7333 4.8 12 4.8C11.2667 4.8 10.6667 4.26 10.6667 3.6ZM18.6667 19.2H12V16.8H18.6667V19.2ZM18.6667 12H12V9.6H18.6667V12Z" fill="#7D5A50"/>
</svg>
