<svg width="55" height="55" viewBox="0 0 55 55" fill="none" xmlns="http://www.w3.org/2000/svg">
<path d="M51.4551 23.9551C50.918 24.528 50.363 25.1367 49.79 25.7812C49.2171 26.4258 48.492 27.2852 47.6147 28.3594C46.7375 29.4336 46.0303 30.5078 45.4932 31.582C44.9561 32.6562 44.6875 33.5872 44.6875 34.375C44.6875 35.3418 43.0135 36.1564 39.6655 36.8188C36.3175 37.4813 32.2624 37.8125 27.5 37.8125C22.7376 37.8125 18.6825 37.4813 15.3345 36.8188C11.9865 36.1564 10.3125 35.3418 10.3125 34.375C10.3125 33.3366 9.8291 32.0386 8.8623 30.481C7.89551 28.9233 6.99137 27.6701 6.1499 26.7212C5.30843 25.7723 4.47591 24.8861 3.65234 24.0625C1.21745 21.6992 0 18.8346 0 15.4688C0 12.1387 1.17269 9.30094 3.51807 6.95557C5.86344 4.61019 8.70117 3.4375 12.0312 3.4375C12.8548 3.4375 13.7142 3.52702 14.6094 3.70605C14.0365 5.17415 13.75 6.80339 13.75 8.59375C13.75 12.4251 14.9316 15.612 17.2949 18.1543C17.2233 16.2207 17.1875 14.1797 17.1875 12.0312C17.1875 8.70117 18.1901 5.86344 20.1953 3.51807C22.2005 1.17269 24.6354 0 27.5 0C30.3646 0 32.7995 1.17269 34.8047 3.51807C36.8099 5.86344 37.8125 8.70117 37.8125 12.0312C37.8125 14.2155 37.7767 16.2565 37.7051 18.1543C40.0684 15.612 41.25 12.4251 41.25 8.59375C41.25 6.80339 40.9635 5.17415 40.3906 3.70605C41.2858 3.52702 42.1452 3.4375 42.9688 3.4375C46.2988 3.4375 49.1366 4.61019 51.4819 6.95557C53.8273 9.30094 55 12.1387 55 15.4688C55 18.7988 53.8184 21.6276 51.4551 23.9551ZM27.4731 41.25C32.2176 41.25 36.2728 40.9098 39.6387 40.2295C43.0046 39.5492 44.6875 38.7435 44.6875 37.8125V51.5625C44.6875 52.4935 43.0046 53.2992 39.6387 53.9795C36.2728 54.6598 32.2176 55 27.4731 55C22.7287 55 18.6825 54.6598 15.3345 53.9795C11.9865 53.2992 10.3125 52.4935 10.3125 51.5625V37.8125C10.3125 38.7793 11.9865 39.5939 15.3345 40.2563C18.6825 40.9188 22.7287 41.25 27.4731 41.25Z" fill="#E5B299"/>
</svg>
