<svg width="24" height="24" viewBox="0 0 24 24" fill="none" xmlns="http://www.w3.org/2000/svg">
<path d="M12 0C12.3978 0 12.7794 0.158036 13.0607 0.43934C13.342 0.720645 13.5 1.10218 13.5 1.5V10.5H22.5C22.8978 10.5 23.2794 10.658 23.5607 10.9393C23.842 11.2206 24 11.6022 24 12C24 12.3978 23.842 12.7794 23.5607 13.0607C23.2794 13.342 22.8978 13.5 22.5 13.5H13.5V22.5C13.5 22.8978 13.342 23.2794 13.0607 23.5607C12.7794 23.842 12.3978 24 12 24C11.6022 24 11.2206 23.842 10.9393 23.5607C10.658 23.2794 10.5 22.8978 10.5 22.5V13.5H1.5C1.10218 13.5 0.720645 13.342 0.43934 13.0607C0.158036 12.7794 0 12.3978 0 12C0 11.6022 0.158036 11.2206 0.43934 10.9393C0.720645 10.658 1.10218 10.5 1.5 10.5H10.5V1.5C10.5 1.10218 10.658 0.720645 10.9393 0.43934C11.2206 0.158036 11.6022 0 12 0Z" fill="black"/>
</svg>
