<svg width="24" height="24" viewBox="0 0 24 24" fill="none" xmlns="http://www.w3.org/2000/svg">
<path d="M21.6 8.8421V7.57895L14.4 0H2.4C1.068 0 0 1.12421 0 2.52632V20.2105C0 20.8805 0.252856 21.5231 0.702944 21.9969C1.15303 22.4707 1.76348 22.7368 2.4 22.7368H9.6V20.3747L19.668 9.77684C20.196 9.22105 20.868 8.91789 21.6 8.8421ZM13.2 1.89474L19.8 8.8421H13.2V1.89474ZM23.82 14.1347L22.644 15.3726L20.196 12.7958L21.372 11.5579C21.6 11.3053 21.996 11.3053 22.236 11.5579L23.82 13.2253C24.06 13.4779 24.06 13.8947 23.82 14.1347ZM19.356 13.68L21.804 16.2568L14.448 24H12V21.4232L19.356 13.68Z" fill="#7D5A50"/>
</svg>
