<svg width="24" height="24" viewBox="0 0 24 24" fill="none" xmlns="http://www.w3.org/2000/svg">
<path d="M0 18.6667H24V24H0V18.6667ZM5.1 5.33333H8.4V4H4.8V0H14.4V4H10.8V5.33333H18.96C20.16 5.33333 21.36 6.66667 21.6 8L22.2 17.3333H1.8L2.46 8C2.46 6.66667 3.66 5.33333 5.1 5.33333ZM13.2 8V10.6667H19.2V8H13.2ZM4.8 8V9.33333H7.2V8H4.8ZM8.4 8V9.33333H10.8V8H8.4ZM4.8 10.6667V12H7.2V10.6667H4.8ZM8.4 10.6667V12H10.8V10.6667H8.4ZM4.8 13.3333V14.6667H7.2V13.3333H4.8ZM8.4 13.3333V14.6667H10.8V13.3333H8.4ZM6 1.33333V2.66667H13.2V1.33333H6Z" fill="#7D5A50"/>
</svg>
